<svg xmlns="http://www.w3.org/2000/svg" xmlns:xlink="http://www.w3.org/1999/xlink" viewBox="880.0001 389.7465 160.1124 180.5553" width="369.7862693590274" height="417" x="65.1069px" y="41.5px" preserveAspectRatio="none"><defs/><style>.aLgOaV3zRcolors-0c835ddd6-1b30-4a7d-8db3-66577f163c73 {fill:#F7FFFF;fill-opacity:1;}.companyNamec835ddd6-1b30-4a7d-8db3-66577f163c73 {fill:#FFFFFF;fill-opacity:1;}.icon2c835ddd6-1b30-4a7d-8db3-66577f163c73 {fill:#FFFFFF;fill-opacity:1;}.icon3-strc835ddd6-1b30-4a7d-8db3-66577f163c73 {stroke:#0017EB;stroke-opacity:1;}.icon3c835ddd6-1b30-4a7d-8db3-66577f163c73 {fill:#0017EB;fill-opacity:1;}</style><g opacity="1" transform="rotate(0 676 253.7991)">
<svg width="0" height="0" x="676" y="253.7991" version="1.1" preserveAspectRatio="none" viewBox="0 0 0 0">
  <g transform="matrix(1 0 0 1 0 0)" class="companyNamec835ddd6-1b30-4a7d-8db3-66577f163c73"/>
</svg>
</g><g opacity="1" transform="rotate(0 880.0001 389.7465)">
<svg width="160.1124" height="180.5553" x="880.0001" y="389.7465" version="1.1" preserveAspectRatio="none" viewBox="92.1099853515625 49.80998229980469 662.4500122070312 747.0299682617188">
  <g transform="matrix(1 0 0 1 0 0)" class="aLgOaV3zRcolors-0c835ddd6-1b30-4a7d-8db3-66577f163c73"><defs/><g><path class="fil0" d="M754.56 381.7l-305.94 -331.89 0 220.86 164.84 171.27 0 170.3 -13.92 12.21 116.18 102.61 38.84 -35.56 0 -309.8zm-356.51 -331.89l-305.94 331.89 0 309.8 38.84 35.57 116.18 -102.62 -13.92 -12.21 0 -170.3 164.84 -171.27 0 -220.86zm-229.73 711.47l38.84 35.56 432.34 0 38.86 -35.56 -117.01 -103.33 -13.93 12.22 -248.17 0 -13.93 -12.22 -117 103.33z"/></g></g>
</svg>
</g></svg>